<svg xmlns="http://www.w3.org/2000/svg" id="Layer_1" data-name="Layer 1" viewBox="0 0 900 832"><defs><style>.cls-1{fill:#e68201;}.cls-2{fill:#fff;}</style></defs><polygon class="cls-1" points="203.01 564.29 203.01 272.73 455.51 126.95 708.01 272.73 708.01 564.29 455.51 710.08 203.01 564.29"></polygon><path class="cls-2" d="M455.51,129.84l250,144.34V562.85l-250,144.34-250-144.34V274.18l250-144.34m0-5.77-2.5,1.44L203,269.85l-2.5,1.44V565.74l2.5,1.44L453,711.52l2.5,1.44,2.5-1.44L708,567.18l2.5-1.44V271.29l-2.5-1.44L458,125.51l-2.5-1.44Z"></path><circle class="cls-2" cx="552" cy="419" r="24"></circle><circle class="cls-2" cx="502" cy="506" r="24"></circle><circle class="cls-2" cx="353" cy="418" r="24"></circle><circle class="cls-2" cx="502" cy="332" r="24"></circle><circle class="cls-2" cx="402" cy="505" r="24"></circle><circle class="cls-2" cx="403" cy="332" r="24"></circle></svg>